YUUSansSerif-Regular.ufo
<glyph name="a" format="1">
  <advance width="584" height="-120"/>
  <unicode hex="0061"/>
  <outline>
    <contour>
      <point x="456" y="289" type="curve" name="hr00"/>
      <point x="456" y="215" type="line"/>
      <point x="419" y="252"/>
      <point x="349" y="264"/>
      <point x="294" y="265" type="curve" smooth="yes"/>
      <point x="232" y="266"/>
      <point x="148" y="235"/>
      <point x="148" y="171" type="curve" smooth="yes"/>
      <point x="148" y="107"/>
      <point x="219" y="78"/>
      <point x="299" y="82" type="curve" smooth="yes"/>
      <point x="346" y="84"/>
      <point x="371" y="104"/>
      <point x="457" y="142" type="curve"/>
      <point x="457" y="52" type="line"/>
      <point x="388" y="14"/>
      <point x="340" y="-8"/>
      <point x="276" y="-8" type="curve" smooth="yes"/>
      <point x="118" y="-8"/>
      <point x="50" y="73"/>
      <point x="50" y="171" type="curve" smooth="yes"/>
      <point x="50" y="273"/>
      <point x="111" y="360"/>
      <point x="273" y="360" type="curve" smooth="yes"/>
      <point x="327" y="360"/>
      <point x="385" y="352"/>
    </contour>
    <contour>
      <point x="450" y="352" type="line"/>
      <point x="534" y="352" type="line"/>
      <point x="534" y="0" type="line"/>
      <point x="450" y="0" type="line"/>
    </contour>
    <contour>
      <point x="285" y="571" type="curve" smooth="yes"/>
      <point x="474" y="571"/>
      <point x="532" y="450"/>
      <point x="534" y="312" type="curve"/>
      <point x="445" y="313" type="line"/>
      <point x="445" y="417"/>
      <point x="395" y="484"/>
      <point x="279" y="487" type="curve" smooth="yes"/>
      <point x="224" y="488"/>
      <point x="167" y="447"/>
      <point x="72" y="386" type="curve"/>
      <point x="72" y="490" type="line"/>
      <point x="133" y="532"/>
      <point x="171" y="571"/>
    </contour>
  </outline>
</glyph>
<glyph name="b" format="1">
  <advance width="637" height="-120"/>
  <unicode hex="0062"/>
  <outline>
    <contour>
      <point x="101" y="479" type="line" name="hr00"/>
      <point x="193" y="540"/>
      <point x="231" y="570"/>
      <point x="324" y="570" type="curve" smooth="yes"/>
      <point x="486" y="570"/>
      <point x="585" y="429"/>
      <point x="587" y="291" type="curve" smooth="yes"/>
      <point x="590" y="102"/>
      <point x="458" y="-8"/>
      <point x="301" y="-8" type="curve" smooth="yes"/>
      <point x="237" y="-8"/>
      <point x="210" y="10"/>
      <point x="100" y="62" type="curve"/>
      <point x="100" y="152" type="line"/>
      <point x="199" y="118"/>
      <point x="231" y="92"/>
      <point x="278" y="92" type="curve" smooth="yes"/>
      <point x="367" y="92"/>
      <point x="459" y="155"/>
      <point x="459" y="291" type="curve" smooth="yes"/>
      <point x="459" y="395"/>
      <point x="386" y="463"/>
      <point x="303" y="465" type="curve" smooth="yes"/>
      <point x="248" y="466"/>
      <point x="196" y="436"/>
      <point x="101" y="375" type="curve"/>
    </contour>
    <contour>
      <point x="157" y="880" type="line"/>
      <point x="157" y="0" type="line"/>
      <point x="50" y="0" type="line"/>
      <point x="50" y="880" type="line"/>
    </contour>
  </outline>
</glyph>
<glyph name="c" format="1">
  <advance width="597" height="-120"/>
  <unicode hex="0063"/>
  <outline>
    <contour>
      <point x="546" y="499" type="line" name="hr00"/>
      <point x="454" y="560"/>
      <point x="416" y="570"/>
      <point x="323" y="570" type="curve" smooth="yes"/>
      <point x="161" y="570"/>
      <point x="52" y="429"/>
      <point x="50" y="291" type="curve" smooth="yes"/>
      <point x="47" y="102"/>
      <point x="189" y="-8"/>
      <point x="346" y="-8" type="curve" smooth="yes"/>
      <point x="410" y="-8"/>
      <point x="437" y="0"/>
      <point x="547" y="52" type="curve"/>
      <point x="547" y="142" type="line"/>
      <point x="448" y="108"/>
      <point x="416" y="92"/>
      <point x="369" y="92" type="curve" smooth="yes"/>
      <point x="280" y="92"/>
      <point x="178" y="155"/>
      <point x="178" y="291" type="curve" smooth="yes"/>
      <point x="178" y="395"/>
      <point x="261" y="463"/>
      <point x="344" y="465" type="curve" smooth="yes"/>
      <point x="399" y="466"/>
      <point x="451" y="456"/>
      <point x="546" y="395" type="curve"/>
    </contour>
  </outline>
</glyph>
<glyph name="d" format="1">
  <advance width="657" height="-120"/>
  <unicode hex="0064"/>
  <outline>
    <contour>
      <point x="500" y="422" type="line"/>
      <point x="433" y="459"/>
      <point x="389" y="466"/>
      <point x="344" y="465" type="curve" smooth="yes"/>
      <point x="261" y="463"/>
      <point x="178" y="395"/>
      <point x="178" y="291" type="curve" smooth="yes"/>
      <point x="178" y="155"/>
      <point x="280" y="92"/>
      <point x="369" y="92" type="curve" smooth="yes"/>
      <point x="408" y="92"/>
      <point x="436" y="103"/>
      <point x="500" y="126" type="curve"/>
    </contour>
    <contour>
      <point x="500" y="880" type="line"/>
      <point x="607" y="880" type="line"/>
      <point x="607" y="0" type="line"/>
      <point x="500" y="0" type="line"/>
      <point x="500" y="30" type="line"/>
      <point x="427" y="-2"/>
      <point x="400" y="-8"/>
      <point x="346" y="-8" type="curve" smooth="yes"/>
      <point x="189" y="-8"/>
      <point x="47" y="102"/>
      <point x="50" y="291" type="curve" smooth="yes"/>
      <point x="52" y="429"/>
      <point x="161" y="570"/>
      <point x="323" y="570" type="curve" smooth="yes"/>
      <point x="399" y="570"/>
      <point x="438" y="563"/>
      <point x="500" y="528" type="curve"/>
    </contour>
  </outline>
</glyph>
<glyph name="e" format="1">
  <advance width="647" height="-120"/>
  <unicode hex="0065"/>
  <outline>
    <contour>
      <point x="201" y="190" type="line"/>
      <point x="237" y="124"/>
      <point x="306" y="92"/>
      <point x="369" y="92" type="curve" smooth="yes"/>
      <point x="416" y="92"/>
      <point x="479" y="111"/>
      <point x="577" y="152" type="curve"/>
      <point x="577" y="62" type="line"/>
      <point x="458" y="0"/>
      <point x="410" y="-8"/>
      <point x="346" y="-8" type="curve" smooth="yes"/>
      <point x="189" y="-8"/>
      <point x="47" y="102"/>
      <point x="50" y="291" type="curve" smooth="yes"/>
      <point x="52" y="429"/>
      <point x="161" y="570"/>
      <point x="323" y="570" type="curve" smooth="yes"/>
      <point x="503" y="570"/>
      <point x="597" y="409"/>
      <point x="597" y="310" type="curve"/>
    </contour>
    <contour>
      <point x="481" y="346" type="line"/>
      <point x="486" y="425"/>
      <point x="393" y="465"/>
      <point x="344" y="465" type="curve" smooth="yes"/>
      <point x="261" y="465"/>
      <point x="178" y="395"/>
      <point x="178" y="291" type="curve" smooth="yes"/>
      <point x="178" y="282"/>
      <point x="178" y="274"/>
      <point x="179" y="266" type="curve"/>
    </contour>
  </outline>
</glyph>
<glyph name="f" format="1">
  <advance width="498" height="-120"/>
  <unicode hex="0066"/>
  <outline>
    <contour>
      <point x="351" y="799" type="curve" smooth="yes" name="hr00"/>
      <point x="215" y="799"/>
      <point x="151" y="715"/>
      <point x="150" y="577" type="curve" smooth="yes"/>
      <point x="147" y="0" type="line"/>
      <point x="253" y="0" type="line"/>
      <point x="256" y="555" type="line"/>
      <point x="264" y="653"/>
      <point x="272" y="701"/>
      <point x="354" y="695" type="curve" smooth="yes"/>
      <point x="382" y="693"/>
      <point x="417" y="678"/>
      <point x="447" y="660" type="curve"/>
      <point x="448" y="769" type="line"/>
      <point x="419" y="782"/>
      <point x="389" y="799"/>
    </contour>
    <contour>
      <point x="50" y="528" type="line"/>
      <point x="50" y="440" type="line"/>
      <point x="428" y="440" type="line"/>
      <point x="428" y="528" type="line"/>
    </contour>
  </outline>
</glyph>
<glyph name="g" format="1">
  <advance width="607" height="-285"/>
  <unicode hex="0067"/>
  <outline>
    <contour>
      <point x="451" y="550" type="line"/>
      <point x="557" y="550" type="line"/>
      <point x="555" y="13" type="line" smooth="yes"/>
      <point x="555" y="-125"/>
      <point x="460" y="-209"/>
      <point x="324" y="-209" type="curve" smooth="yes"/>
      <point x="222" y="-209"/>
      <point x="144" y="-186"/>
      <point x="54" y="-91" type="curve"/>
      <point x="74" y="17" type="line"/>
      <point x="177" y="-81"/>
      <point x="241" y="-105"/>
      <point x="321" y="-105" type="curve" smooth="yes"/>
      <point x="403" y="-105"/>
      <point x="441" y="-63"/>
      <point x="449" y="35" type="curve"/>
    </contour>
    <contour>
      <point x="526" y="479" type="curve"/>
      <point x="526" y="375" type="line"/>
      <point x="443" y="445"/>
      <point x="408" y="466"/>
      <point x="334" y="465" type="curve" smooth="yes"/>
      <point x="251" y="464"/>
      <point x="178" y="385"/>
      <point x="178" y="281" type="curve" smooth="yes"/>
      <point x="178" y="165"/>
      <point x="260" y="102"/>
      <point x="349" y="102" type="curve" smooth="yes"/>
      <point x="404" y="102"/>
      <point x="452" y="126"/>
      <point x="527" y="162" type="curve"/>
      <point x="527" y="72" type="line"/>
      <point x="457" y="31"/>
      <point x="400" y="12"/>
      <point x="336" y="12" type="curve" smooth="yes"/>
      <point x="179" y="12"/>
      <point x="50" y="117"/>
      <point x="50" y="281" type="curve" smooth="yes"/>
      <point x="50" y="419"/>
      <point x="151" y="570"/>
      <point x="313" y="570" type="curve" smooth="yes"/>
      <point x="406" y="570"/>
      <point x="452" y="530"/>
    </contour>
  </outline>
</glyph>
<glyph name="h" format="1">
  <advance width="565" height="-120"/>
  <unicode hex="0068"/>
  <outline>
    <contour>
      <point x="157" y="880" type="line"/>
      <point x="157" y="521" type="line"/>
      <point x="189" y="552"/>
      <point x="234" y="570"/>
      <point x="304" y="570" type="curve" smooth="yes"/>
      <point x="438" y="570"/>
      <point x="515" y="488"/>
      <point x="515" y="300" type="curve" smooth="yes"/>
      <point x="515" y="0" type="line"/>
      <point x="418" y="0" type="line"/>
      <point x="419" y="299" type="line" smooth="yes"/>
      <point x="419" y="426"/>
      <point x="376" y="465"/>
      <point x="293" y="465" type="curve" smooth="yes"/>
      <point x="241" y="465"/>
      <point x="196" y="439"/>
      <point x="157" y="398" type="curve"/>
      <point x="157" y="0" type="line"/>
      <point x="50" y="0" type="line"/>
      <point x="50" y="880" type="line"/>
    </contour>
  </outline>
</glyph>
<glyph name="i" format="1">
  <advance width="227" height="-120"/>
  <unicode hex="0069"/>
  <outline>
    <contour>
      <point x="167" y="560" type="line"/>
      <point x="167" y="0" type="line"/>
      <point x="60" y="0" type="line"/>
      <point x="60" y="560" type="line"/>
    </contour>
    <contour>
      <point x="167" y="760" type="line"/>
      <point x="167" y="660" type="line"/>
      <point x="60" y="660" type="line"/>
      <point x="60" y="760" type="line"/>
    </contour>
  </outline>
</glyph>
<glyph name="j" format="1">
  <advance width="513" height="-120"/>
  <unicode hex="006A"/>
  <outline>
    <contour>
      <point x="337" y="550" type="line"/>
      <point x="453" y="550" type="line"/>
      <point x="451" y="13" type="line" smooth="yes"/>
      <point x="450" y="-125"/>
      <point x="386" y="-209"/>
      <point x="250" y="-209" type="curve" smooth="yes"/>
      <point x="181" y="-209"/>
      <point x="84" y="-160"/>
      <point x="50" y="-91" type="curve"/>
      <point x="70" y="17" type="line"/>
      <point x="130" y="-78"/>
      <point x="200" y="-105"/>
      <point x="247" y="-105" type="curve" smooth="yes"/>
      <point x="329" y="-105"/>
      <point x="327" y="-63"/>
      <point x="335" y="35" type="curve"/>
    </contour>
    <contour>
      <point x="442" y="760" type="line"/>
      <point x="442" y="660" type="line"/>
      <point x="335" y="660" type="line"/>
      <point x="335" y="760" type="line"/>
    </contour>
  </outline>
</glyph>
<glyph name="k" format="1">
  <advance width="581" height="-120"/>
  <unicode hex="006B"/>
  <outline>
    <contour>
      <point x="157" y="880" type="line" name="hr00"/>
      <point x="157" y="0" type="line"/>
      <point x="50" y="0" type="line"/>
      <point x="50" y="880" type="line"/>
    </contour>
    <contour>
      <point x="130" y="355" type="line"/>
      <point x="452" y="578" type="line"/>
      <point x="502" y="505" type="line"/>
      <point x="130" y="239" type="line"/>
    </contour>
    <contour>
      <point x="272" y="390" type="line"/>
      <point x="531" y="0" type="line"/>
      <point x="416" y="0" type="line"/>
      <point x="204" y="336" type="line"/>
    </contour>
  </outline>
</glyph>
<glyph name="m" format="1">
  <advance width="925" height="-120"/>
  <unicode hex="006D"/>
  <outline>
    <contour>
      <point x="147" y="560" type="line"/>
      <point x="147" y="510" type="line"/>
      <point x="179" y="548"/>
      <point x="226" y="570"/>
      <point x="304" y="570" type="curve" smooth="yes"/>
      <point x="386" y="570"/>
      <point x="447" y="539"/>
      <point x="481" y="472" type="curve"/>
      <point x="514" y="532"/>
      <point x="563" y="570"/>
      <point x="664" y="570" type="curve" smooth="yes"/>
      <point x="798" y="570"/>
      <point x="875" y="488"/>
      <point x="875" y="300" type="curve" smooth="yes"/>
      <point x="875" y="0" type="line"/>
      <point x="778" y="0" type="line"/>
      <point x="779" y="299" type="line" smooth="yes"/>
      <point x="779" y="426"/>
      <point x="736" y="465"/>
      <point x="653" y="465" type="curve" smooth="yes"/>
      <point x="597" y="465"/>
      <point x="549" y="435"/>
      <point x="508" y="389" type="curve"/>
      <point x="513" y="362"/>
      <point x="515" y="333"/>
      <point x="515" y="300" type="curve" smooth="yes"/>
      <point x="515" y="0" type="line"/>
      <point x="418" y="0" type="line"/>
      <point x="419" y="299" type="line" smooth="yes"/>
      <point x="419" y="426"/>
      <point x="376" y="465"/>
      <point x="293" y="465" type="curve" smooth="yes"/>
      <point x="236" y="465"/>
      <point x="188" y="435"/>
      <point x="147" y="388" type="curve"/>
      <point x="147" y="0" type="line"/>
      <point x="50" y="0" type="line"/>
      <point x="50" y="560" type="line"/>
    </contour>
  </outline>
</glyph>
<glyph name="n" format="1">
  <advance width="565" height="-120"/>
  <unicode hex="006E"/>
  <outline>
    <contour>
      <point x="304" y="570" type="curve" smooth="yes"/>
      <point x="438" y="570"/>
      <point x="515" y="488"/>
      <point x="515" y="300" type="curve" smooth="yes"/>
      <point x="515" y="0" type="line"/>
      <point x="418" y="0" type="line"/>
      <point x="419" y="299" type="line" smooth="yes"/>
      <point x="419" y="426"/>
      <point x="376" y="465"/>
      <point x="293" y="465" type="curve" smooth="yes"/>
      <point x="236" y="465"/>
      <point x="188" y="435"/>
      <point x="147" y="388" type="curve"/>
      <point x="147" y="0" type="line"/>
      <point x="50" y="0" type="line"/>
      <point x="50" y="560" type="line"/>
      <point x="147" y="560" type="line"/>
      <point x="147" y="510" type="line"/>
      <point x="179" y="548"/>
      <point x="226" y="570"/>
    </contour>
  </outline>
</glyph>
<glyph name="o" format="1">
  <advance width="676" height="-120"/>
  <unicode hex="006F"/>
  <outline>
    <contour>
      <point x="50" y="281" type="curve" smooth="yes" name="hr00"/>
      <point x="47" y="92"/>
      <point x="193" y="-18"/>
      <point x="333" y="-18" type="curve" smooth="yes"/>
      <point x="491" y="-18"/>
      <point x="622" y="72"/>
      <point x="626" y="261" type="curve" smooth="yes"/>
      <point x="630" y="462"/>
      <point x="487" y="572"/>
      <point x="333" y="570" type="curve" smooth="yes"/>
      <point x="152" y="568"/>
      <point x="52" y="419"/>
    </contour>
    <contour>
      <point x="168" y="271" type="curve" smooth="yes"/>
      <point x="168" y="375"/>
      <point x="235" y="468"/>
      <point x="333" y="465" type="curve" smooth="yes"/>
      <point x="444" y="462"/>
      <point x="508" y="381"/>
      <point x="508" y="271" type="curve" smooth="yes"/>
      <point x="508" y="143"/>
      <point x="422" y="82"/>
      <point x="333" y="82" type="curve" smooth="yes"/>
      <point x="246" y="82"/>
      <point x="168" y="153"/>
    </contour>
  </outline>
</glyph>
<glyph name="p" format="1">
  <advance width="637" height="-120"/>
  <unicode hex="0070"/>
  <outline>
    <contour>
      <point x="101" y="81" type="line" name="hr00"/>
      <point x="193" y="20"/>
      <point x="231" y="-10"/>
      <point x="324" y="-10" type="curve" smooth="yes"/>
      <point x="486" y="-10"/>
      <point x="585" y="131"/>
      <point x="587" y="269" type="curve" smooth="yes"/>
      <point x="590" y="458"/>
      <point x="458" y="568"/>
      <point x="301" y="568" type="curve" smooth="yes"/>
      <point x="237" y="568"/>
      <point x="210" y="550"/>
      <point x="100" y="498" type="curve"/>
      <point x="100" y="408" type="line"/>
      <point x="199" y="442"/>
      <point x="231" y="468"/>
      <point x="278" y="468" type="curve" smooth="yes"/>
      <point x="367" y="468"/>
      <point x="459" y="405"/>
      <point x="459" y="269" type="curve" smooth="yes"/>
      <point x="459" y="165"/>
      <point x="386" y="97"/>
      <point x="303" y="95" type="curve" smooth="yes"/>
      <point x="248" y="94"/>
      <point x="196" y="124"/>
      <point x="101" y="185" type="curve"/>
    </contour>
    <contour>
      <point x="147" y="-200" type="line"/>
      <point x="147" y="560" type="line"/>
      <point x="50" y="560" type="line"/>
      <point x="50" y="-200" type="line"/>
    </contour>
  </outline>
</glyph>
<glyph name="q" format="1">
  <advance width="637" height="-120"/>
  <unicode hex="0071"/>
  <outline>
    <contour>
      <point x="490" y="156" type="curve"/>
      <point x="490" y="425" type="line"/>
      <point x="426" y="450"/>
      <point x="398" y="468"/>
      <point x="359" y="468" type="curve" smooth="yes"/>
      <point x="270" y="468"/>
      <point x="178" y="405"/>
      <point x="178" y="269" type="curve" smooth="yes"/>
      <point x="178" y="165"/>
      <point x="251" y="97"/>
      <point x="334" y="95" type="curve" smooth="yes"/>
      <point x="379" y="94"/>
      <point x="423" y="114"/>
    </contour>
    <contour>
      <point x="490" y="-200" type="line"/>
      <point x="490" y="50" type="line"/>
      <point x="428" y="10"/>
      <point x="389" y="-10"/>
      <point x="313" y="-10" type="curve" smooth="yes"/>
      <point x="151" y="-10"/>
      <point x="52" y="131"/>
      <point x="50" y="269" type="curve" smooth="yes"/>
      <point x="47" y="458"/>
      <point x="179" y="568"/>
      <point x="336" y="568" type="curve" smooth="yes"/>
      <point x="390" y="568"/>
      <point x="417" y="555"/>
      <point x="490" y="520" type="curve"/>
      <point x="490" y="560" type="line"/>
      <point x="587" y="560" type="line"/>
      <point x="587" y="-200" type="line"/>
    </contour>
  </outline>
</glyph>
<glyph name="r" format="1">
  <advance width="354" height="-120"/>
  <unicode hex="0072"/>
  <outline>
    <contour>
      <point x="147" y="0" type="line"/>
      <point x="50" y="0" type="line"/>
      <point x="50" y="560" type="line"/>
      <point x="147" y="560" type="line"/>
      <point x="147" y="494" type="line"/>
      <point x="181" y="535"/>
      <point x="233" y="568"/>
      <point x="331" y="568" type="curve"/>
      <point x="328" y="468" type="line"/>
      <point x="245" y="468"/>
      <point x="195" y="442"/>
      <point x="147" y="392" type="curve"/>
    </contour>
  </outline>
</glyph>
<glyph name="s" format="1">
  <advance width="528" height="-120"/>
  <unicode hex="0073"/>
  <outline>
    <contour>
      <point x="273" y="-17" type="curve" smooth="yes" name="hr00"/>
      <point x="159" y="-17"/>
      <point x="128" y="11"/>
      <point x="50" y="64" type="curve"/>
      <point x="50" y="168" type="line"/>
      <point x="145" y="107"/>
      <point x="212" y="78"/>
      <point x="267" y="77" type="curve" smooth="yes"/>
      <point x="312" y="76"/>
      <point x="370" y="80"/>
      <point x="369" y="146" type="curve" smooth="yes"/>
      <point x="368" y="199"/>
      <point x="295" y="228"/>
      <point x="221" y="248" type="curve" smooth="yes"/>
      <point x="104" y="280"/>
      <point x="60" y="319"/>
      <point x="60" y="414" type="curve" smooth="yes"/>
      <point x="60" y="493"/>
      <point x="149" y="571"/>
      <point x="281" y="571" type="curve" smooth="yes"/>
      <point x="352" y="571"/>
      <point x="422" y="549"/>
      <point x="474" y="500" type="curve"/>
      <point x="474" y="386" type="line"/>
      <point x="391" y="474"/>
      <point x="346" y="485"/>
      <point x="297" y="487" type="curve" smooth="yes"/>
      <point x="215" y="491"/>
      <point x="159" y="457"/>
      <point x="156" y="408" type="curve" smooth="yes"/>
      <point x="152" y="346"/>
      <point x="228" y="334"/>
      <point x="318" y="311" type="curve" smooth="yes"/>
      <point x="428" y="283"/>
      <point x="478" y="213"/>
      <point x="478" y="131" type="curve" smooth="yes"/>
      <point x="478" y="60"/>
      <point x="401" y="-17"/>
    </contour>
  </outline>
</glyph>
<glyph name="t" format="1">
  <advance width="486" height="-120"/>
  <unicode hex="0074"/>
  <outline>
    <contour>
      <point x="50" y="528" type="line"/>
      <point x="176" y="528" type="line"/>
      <point x="175" y="760" type="line"/>
      <point x="281" y="760" type="line"/>
      <point x="282" y="528" type="line"/>
      <point x="428" y="528" type="line"/>
      <point x="428" y="440" type="line"/>
      <point x="283" y="440" type="line"/>
      <point x="284" y="205" type="line" smooth="yes"/>
      <point x="284" y="138"/>
      <point x="291" y="75"/>
      <point x="342" y="75" type="curve" smooth="yes"/>
      <point x="386" y="75"/>
      <point x="405" y="92"/>
      <point x="436" y="110" type="curve"/>
      <point x="436" y="1" type="line"/>
      <point x="407" y="-12"/>
      <point x="377" y="-19"/>
      <point x="339" y="-19" type="curve" smooth="yes"/>
      <point x="168" y="-19"/>
      <point x="178" y="131"/>
      <point x="178" y="203" type="curve" smooth="yes"/>
      <point x="177" y="440" type="line"/>
      <point x="50" y="440" type="line"/>
    </contour>
  </outline>
</glyph>
<glyph name="u" format="1">
  <advance width="565" height="-120"/>
  <unicode hex="0075"/>
  <outline>
    <contour>
      <point x="418" y="-2" type="line"/>
      <point x="418" y="76" type="line"/>
      <point x="379" y="26"/>
      <point x="323" y="-12"/>
      <point x="241" y="-12" type="curve" smooth="yes"/>
      <point x="136" y="-12"/>
      <point x="50" y="70"/>
      <point x="50" y="258" type="curve" smooth="yes"/>
      <point x="50" y="558" type="line"/>
      <point x="147" y="558" type="line"/>
      <point x="146" y="259" type="line" smooth="yes"/>
      <point x="146" y="132"/>
      <point x="183" y="93"/>
      <point x="252" y="93" type="curve" smooth="yes"/>
      <point x="310" y="93"/>
      <point x="370" y="141"/>
      <point x="418" y="199" type="curve"/>
      <point x="418" y="558" type="line"/>
      <point x="515" y="558" type="line"/>
      <point x="515" y="-2" type="line"/>
    </contour>
  </outline>
</glyph>
<glyph name="v" format="1">
  <advance width="652" height="-120"/>
  <unicode hex="0076"/>
  <outline>
    <contour>
      <point x="305" y="-2" type="line" name="hr00"/>
      <point x="505" y="558" type="line"/>
      <point x="602" y="558" type="line"/>
      <point x="402" y="-2" type="line"/>
    </contour>
    <contour>
      <point x="347" y="-2" type="line"/>
      <point x="250" y="-2" type="line"/>
      <point x="50" y="558" type="line"/>
      <point x="147" y="558" type="line"/>
    </contour>
  </outline>
</glyph>
<glyph name="w" format="1">
  <advance width="982" height="-120"/>
  <unicode hex="0077"/>
  <outline>
    <contour>
      <point x="687" y="-2" type="line"/>
      <point x="635" y="-2" type="line"/>
      <point x="620" y="-2" type="line"/>
      <point x="491" y="384" type="line"/>
      <point x="402" y="-2" type="line"/>
      <point x="347" y="-2" type="line"/>
      <point x="305" y="-2" type="line"/>
      <point x="250" y="-2" type="line"/>
      <point x="50" y="558" type="line"/>
      <point x="147" y="558" type="line"/>
      <point x="322" y="69" type="line"/>
      <point x="435" y="558" type="line"/>
      <point x="532" y="558" type="line"/>
      <point x="528" y="543" type="line"/>
      <point x="664" y="78" type="line"/>
      <point x="835" y="558" type="line"/>
      <point x="932" y="558" type="line"/>
      <point x="732" y="-2" type="line"/>
    </contour>
  </outline>
</glyph>
<glyph name="x" format="1">
  <advance width="647" height="-120"/>
  <unicode hex="0078"/>
  <outline>
    <contour>
      <point x="597" y="-2" type="line"/>
      <point x="480" y="-2" type="line"/>
      <point x="327" y="197" type="line"/>
      <point x="182" y="-2" type="line"/>
      <point x="55" y="-2" type="line"/>
      <point x="265" y="278" type="line"/>
      <point x="50" y="558" type="line"/>
      <point x="167" y="558" type="line"/>
      <point x="323" y="355" type="line"/>
      <point x="475" y="558" type="line"/>
      <point x="592" y="558" type="line"/>
      <point x="385" y="275" type="line"/>
    </contour>
  </outline>
</glyph>
<glyph name="y" format="1">
  <advance width="611" height="-120"/>
  <unicode hex="0079"/>
  <outline>
    <contour>
      <point x="257" y="48" type="curve" smooth="yes"/>
      <point x="152" y="48"/>
      <point x="58" y="130"/>
      <point x="56" y="318" type="curve" smooth="yes"/>
      <point x="54" y="559" type="line"/>
      <point x="161" y="559" type="line"/>
      <point x="162" y="319" type="line" smooth="yes"/>
      <point x="163" y="192"/>
      <point x="199" y="153"/>
      <point x="268" y="153" type="curve" smooth="yes"/>
      <point x="339" y="153"/>
      <point x="405" y="226"/>
      <point x="455" y="300" type="curve"/>
      <point x="455" y="559" type="line"/>
      <point x="561" y="559" type="line"/>
      <point x="561" y="33" type="line" smooth="yes"/>
      <point x="561" y="-105"/>
      <point x="466" y="-209"/>
      <point x="280" y="-209" type="curve" smooth="yes"/>
      <point x="211" y="-209"/>
      <point x="84" y="-160"/>
      <point x="50" y="-91" type="curve"/>
      <point x="70" y="17" type="line"/>
      <point x="130" y="-78"/>
      <point x="230" y="-105"/>
      <point x="277" y="-105" type="curve" smooth="yes"/>
      <point x="375" y="-106"/>
      <point x="455" y="-43"/>
      <point x="455" y="55" type="curve" smooth="yes"/>
      <point x="455" y="185" type="line"/>
      <point x="420" y="113"/>
      <point x="364" y="48"/>
    </contour>
  </outline>
</glyph>
<glyph name="z" format="1">
  <advance width="651" height="-120"/>
  <unicode hex="007A"/>
  <outline>
    <contour>
      <point x="86" y="38" type="line" name="hr00"/>
      <point x="447" y="481" type="line"/>
      <point x="554" y="481" type="line"/>
      <point x="183" y="38" type="line"/>
    </contour>
    <contour>
      <point x="601" y="549" type="line"/>
      <point x="541" y="468" type="line"/>
      <point x="91" y="468" type="line"/>
      <point x="131" y="548" type="line"/>
    </contour>
    <contour>
      <point x="560" y="91" type="line"/>
      <point x="540" y="0" type="line"/>
      <point x="50" y="0" type="line"/>
      <point x="130" y="90" type="line"/>
    </contour>
  </outline>
</glyph>
<glyph name="dieresis" format="1">
  <advance width="644" height="-120"/>
  <unicode hex="00A8"/>
  <outline>
    <contour>
      <point x="154" y="711" type="curve" smooth="yes" name="hr00"/>
      <point x="154" y="743"/>
      <point x="180" y="769"/>
      <point x="212" y="769" type="curve" smooth="yes"/>
      <point x="244" y="769"/>
      <point x="270" y="743"/>
      <point x="270" y="711" type="curve" smooth="yes"/>
      <point x="270" y="679"/>
      <point x="244" y="653"/>
      <point x="212" y="653" type="curve" smooth="yes"/>
      <point x="180" y="653"/>
      <point x="154" y="679"/>
    </contour>
    <contour>
      <point x="424" y="711" type="curve" smooth="yes"/>
      <point x="424" y="743"/>
      <point x="450" y="769"/>
      <point x="482" y="769" type="curve" smooth="yes"/>
      <point x="514" y="769"/>
      <point x="540" y="743"/>
      <point x="540" y="711" type="curve" smooth="yes"/>
      <point x="540" y="679"/>
      <point x="514" y="653"/>
      <point x="482" y="653" type="curve" smooth="yes"/>
      <point x="450" y="653"/>
      <point x="424" y="679"/>
    </contour>
  </outline>
</glyph>
<glyph name="l.alt" format="1">
  <advance width="401" height="-120"/>
  <outline>
    <contour>
      <point x="254" y="-29" type="curve" smooth="yes"/>
      <point x="118" y="-29"/>
      <point x="50" y="55"/>
      <point x="50" y="193" type="curve" smooth="yes"/>
      <point x="50" y="880" type="line"/>
      <point x="156" y="880" type="line"/>
      <point x="156" y="215" type="line"/>
      <point x="164" y="117"/>
      <point x="175" y="69"/>
      <point x="257" y="75" type="curve" smooth="yes"/>
      <point x="285" y="77"/>
      <point x="320" y="92"/>
      <point x="350" y="110" type="curve"/>
      <point x="351" y="1" type="line"/>
      <point x="322" y="-12"/>
      <point x="292" y="-29"/>
    </contour>
  </outline>
</glyph>
